REM DIRINDEX 1\2,1\3,1\4,1\5,1\6
REM DIRNAME folder01,folder02,folder03,folder04,folder05,folder06
TITLE ""
FILE "Disc6Track51.mp3" MP3
  TRACK 01 AUDIO
    TITLE "3:cjc030_11908"
    INDEX 01 00:00:00
  TRACK 02 AUDIO
    TITLE "0:"
    INDEX 01 00:01:05
  TRACK 03 AUDIO
    TITLE "4:cjc030_11909"
    INDEX 01 00:01:13
  TRACK 04 AUDIO
    TITLE "0:"
    INDEX 01 00:03:47
  TRACK 05 AUDIO
    TITLE "5:cjc030_11910"
    INDEX 01 00:03:55
  TRACK 06 AUDIO
    TITLE "0:"
    INDEX 01 00:04:66
  TRACK 07 AUDIO
    TITLE "6:cjc030_11911"
    INDEX 01 00:05:05
  TRACK 08 AUDIO
    TITLE "0:"
    INDEX 01 00:08:70
  TRACK 09 AUDIO
    TITLE "3:cjc030_11912"
    INDEX 01 00:09:44
  TRACK 10 AUDIO
    TITLE "0:"
    INDEX 01 00:10:47
  TRACK 11 AUDIO
    TITLE "4:cjc030_11913"
    INDEX 01 00:10:57
  TRACK 12 AUDIO
    TITLE "0:"
    INDEX 01 00:12:24
  TRACK 13 AUDIO
    TITLE "5:cjc030_11914"
    INDEX 01 00:12:32
  TRACK 14 AUDIO
    TITLE "0:"
    INDEX 01 00:13:37
  TRACK 15 AUDIO
    TITLE "6:cjc030_11915"
    INDEX 01 00:13:47
  TRACK 16 AUDIO
    TITLE "0:"
    INDEX 01 00:16:61
  TRACK 17 AUDIO
    TITLE "3:cjc030_11916"
    INDEX 01 00:17:31
  TRACK 18 AUDIO
    TITLE "0:"
    INDEX 01 00:18:39
  TRACK 19 AUDIO
    TITLE "4:cjc030_11917"
    INDEX 01 00:18:48
  TRACK 20 AUDIO
    TITLE "0:"
    INDEX 01 00:21:41
  TRACK 21 AUDIO
    TITLE "5:cjc030_11918"
    INDEX 01 00:21:49
  TRACK 22 AUDIO
    TITLE "0:"
    INDEX 01 00:22:56
  TRACK 23 AUDIO
    TITLE "6:cjc030_11919"
    INDEX 01 00:22:66
  TRACK 24 AUDIO
    TITLE "0:"
    INDEX 01 00:27:08
  TRACK 25 AUDIO
    TITLE "3:cjc030_11920"
    INDEX 01 00:27:55
  TRACK 26 AUDIO
    TITLE "0:"
    INDEX 01 00:28:57
  TRACK 27 AUDIO
    TITLE "4:cjc030_11921"
    INDEX 01 00:28:66
  TRACK 28 AUDIO
    TITLE "0:"
    INDEX 01 00:31:59
  TRACK 29 AUDIO
    TITLE "5:cjc030_11922"
    INDEX 01 00:31:67
  TRACK 30 AUDIO
    TITLE "0:"
    INDEX 01 00:32:72
  TRACK 31 AUDIO
    TITLE "6:cjc030_11923"
    INDEX 01 00:33:07
  TRACK 32 AUDIO
    TITLE "0:"
    INDEX 01 00:36:74
  TRACK 33 AUDIO
    TITLE "3:cjc030_11924"
    INDEX 01 00:37:46
  TRACK 34 AUDIO
    TITLE "0:"
    INDEX 01 00:38:61
  TRACK 35 AUDIO
    TITLE "4:cjc030_11925"
    INDEX 01 00:38:69
  TRACK 36 AUDIO
    TITLE "0:"
    INDEX 01 00:41:18
  TRACK 37 AUDIO
    TITLE "5:cjc030_11926"
    INDEX 01 00:41:28
  TRACK 38 AUDIO
    TITLE "0:"
    INDEX 01 00:42:41
  TRACK 39 AUDIO
    TITLE "3:cjc030_11927"
    INDEX 01 00:43:17
  TRACK 40 AUDIO
    TITLE "0:"
    INDEX 01 00:44:28
  TRACK 41 AUDIO
    TITLE "4:cjc030_11928"
    INDEX 01 00:44:40
  TRACK 42 AUDIO
    TITLE "0:"
    INDEX 01 00:46:06
  TRACK 43 AUDIO
    TITLE "5:cjc030_11929"
    INDEX 01 00:46:15
  TRACK 44 AUDIO
    TITLE "0:"
    INDEX 01 00:47:30
  TRACK 45 AUDIO
    TITLE "6:cjc030_11930"
    INDEX 01 00:47:40
  TRACK 46 AUDIO
    TITLE "0:"
    INDEX 01 00:53:11
  TRACK 47 AUDIO
    TITLE "3:cjc030_11931"
    INDEX 01 00:53:58
  TRACK 48 AUDIO
    TITLE "0:"
    INDEX 01 00:54:64
  TRACK 49 AUDIO
    TITLE "4:cjc030_11932"
    INDEX 01 00:54:74
  TRACK 50 AUDIO
    TITLE "0:"
    INDEX 01 00:56:41
  TRACK 51 AUDIO
    TITLE "5:cjc030_11933"
    INDEX 01 00:56:49
  TRACK 52 AUDIO
    TITLE "0:"
    INDEX 01 00:57:56
  TRACK 53 AUDIO
    TITLE "6:cjc030_11934"
    INDEX 01 00:57:66
  TRACK 54 AUDIO
    TITLE "0:"
    INDEX 01 01:01:40
  TRACK 55 AUDIO
    TITLE "3:cjc030_11935"
    INDEX 01 01:02:10
  TRACK 56 AUDIO
    TITLE "0:"
    INDEX 01 01:03:18
  TRACK 57 AUDIO
    TITLE "4:cjc030_11936"
    INDEX 01 01:03:29
  TRACK 58 AUDIO
    TITLE "0:"
    INDEX 01 01:04:23
  TRACK 59 AUDIO
    TITLE "5:cjc030_11937"
    INDEX 01 01:04:33
  TRACK 60 AUDIO
    TITLE "0:"
    INDEX 01 01:05:42
  TRACK 61 AUDIO
    TITLE "3:cjc030_11938"
    INDEX 01 01:06:24
  TRACK 62 AUDIO
    TITLE "0:"
    INDEX 01 01:07:39
  TRACK 63 AUDIO
    TITLE "4:cjc030_11939"
    INDEX 01 01:07:51
  TRACK 64 AUDIO
    TITLE "0:"
    INDEX 01 01:09:14
  TRACK 65 AUDIO
    TITLE "5:cjc030_11940"
    INDEX 01 01:09:24
  TRACK 66 AUDIO
    TITLE "0:"
    INDEX 01 01:10:41
  TRACK 67 AUDIO
    TITLE "6:cjc030_11941"
    INDEX 01 01:10:51
  TRACK 68 AUDIO
    TITLE "0:"
    INDEX 01 01:14:31
  TRACK 69 AUDIO
    TITLE "3:cjc030_11942"
    INDEX 01 01:15:03
  TRACK 70 AUDIO
    TITLE "0:"
    INDEX 01 01:16:07
  TRACK 71 AUDIO
    TITLE "4:cjc030_11943"
    INDEX 01 01:16:18
  TRACK 72 AUDIO
    TITLE "0:"
    INDEX 01 01:17:61
  TRACK 73 AUDIO
    TITLE "5:cjc030_11944"
    INDEX 01 01:17:71
  TRACK 74 AUDIO
    TITLE "0:"
    INDEX 01 01:19:01
